<?xml version="1.0" encoding="UTF-8"?>
<svg id="Layer_1" xmlns="http://www.w3.org/2000/svg" version="1.1" viewBox="0 0 185 32">
  <!-- Generator: Adobe Illustrator 30.1.0, SVG Export Plug-In . SVG Version: 2.1.1 Build 136)  -->
  <defs>
    <style>
      .st0 {
        fill-rule: evenodd;
      }
    </style>
  </defs>
  <path class="st0" d="M65.3,8.1c-1.5,0-3,.2-4.5.8-1.4.6-2.7,1.4-3.8,2.5s-1.9,2.3-2.5,3.8c-.6,1.4-.9,2.9-.8,4.4h0c0,2.3.6,4.6,1.9,6.5,1.3,1.9,3.1,3.4,5.2,4.3,2.1.9,4.5,1.2,6.7.7,2.3-.4,4.3-1.5,6-3.1,1.6-1.6,2.8-3.7,3.2-5.9.5-2.3.2-4.6-.6-6.7-.9-2.1-2.4-4-4.3-5.2-1.9-1.4-4.2-2.1-6.5-2.1ZM65.3,25c-.7,0-1.4-.2-2-.4-.6-.3-1.2-.7-1.7-1.2s-.9-1.1-1.1-1.7c-.2-.6-.4-1.3-.3-2h0c.1-1,.4-2,1-2.8s1.4-1.4,2.4-1.8c.9-.4,2-.4,3-.2s1.9.7,2.6,1.5c.7.8,1.2,1.7,1.3,2.7.2,1,.1,2-.3,3-.4.9-1.1,1.7-1.9,2.3-1,.3-1.9.6-3,.6h0Z"/>
  <path class="st0" d="M47.9,11.5c-1.1-1.1-2.3-2-3.7-2.6s-2.9-.9-4.4-.9c-3,0-6,1.2-8.1,3.4s-3.3,5.1-3.3,8.1,1.2,6,3.4,8.1c2.2,2.1,5.1,3.3,8.1,3.3,2.2,0,4.4-.7,6.1-1.9,2-1.4,3.5-3.3,4.4-5.5h-6.6c-.4.7-1,1.2-1.7,1.5s-1.5.5-2.2.5c-2.5,0-4.7-1.5-5-3.8h16c.3-1.8.2-3.7-.3-5.5s-1.4-3.3-2.7-4.7ZM35,16.9c.3-1,1-1.9,1.9-2.5s1.9-.9,3-.9,2.1.3,3,.9c.9.6,1.5,1.5,1.9,2.5h-9.8Z"/>
  <path class="st0" d="M18.8,1.6l.2,17.5L7.9,1.6H1.6v28.7h7l-.1-17.2,11,17.3h6.4V1.6h-7.1Z"/>
  <path class="st0" d="M159.6,30.4h7.3V8.1h5.6V1.6h-18.6v6.4h5.7v22.4Z"/>
  <path class="st0" d="M135.6,30.4h7.3v-11h8v-6.4h-8v-4.9h8.4V1.6h-15.7v28.8Z"/>
  <path class="st0" d="M117.8,1.1c-2,0-4,.3-5.9,1.1s-3.6,1.9-5,3.3-2.5,3.1-3.3,5c-.7,1.9-1.1,3.9-1,5.9h0c0,3,.9,5.9,2.6,8.4s4.1,4.4,6.8,5.6c2.7,1.2,5.8,1.4,8.8.8,2.9-.6,5.6-2.1,7.7-4.2,2.1-2.1,3.5-4.8,4.1-7.8.6-2.9.3-6-.9-8.8s-3.1-5.1-5.6-6.8c-2.4-1.6-5.3-2.5-8.3-2.5ZM117.9,24.5c-4.9,0-7.9-4.1-7.9-8.5h0c0-4,2.8-8.4,7.8-8.4,5.3,0,7.8,4.8,7.8,8.5,0,3.6-2.5,8.4-7.7,8.4h0Z"/>
  <path class="st0" d="M79.6,20.9c-.2,5.6,2.8,10.1,10.4,10.1s10-4.6,10-9.2c0-3.3-1.4-5.8-6.7-8.2-5.2-2.3-5.9-2.7-5.9-4,0-.6.3-1.2.8-1.6s1.1-.6,1.7-.6c2.3,0,2.5,1.8,2.6,2.8h7.3c-.1-6.9-5.7-8.9-9.7-8.9-4.8,0-10.1,3.1-10.1,8.9,0,5.4,5,7.4,7,8.2,4.4,1.9,5.6,2.3,5.6,3.8,0,.4-.1.7-.2,1.1-.1.3-.3.6-.6.9-.3.3-.6.5-.9.6s-.7.2-1.1.2c-.9,0-3-.6-3-3.9l-7.2-.2Z"/>
  <g>
    <path class="st0" d="M179.3.4c-2.3,0-4.1,1.8-4.1,4.1s1.8,4.1,4.1,4.1,4.1-1.8,4.1-4.1c0-2.2-1.8-4.1-4.1-4.1M179.3,8c-1.9,0-3.5-1.5-3.5-3.5s1.5-3.5,3.5-3.5,3.5,1.5,3.5,3.5c-.1,2-1.6,3.5-3.5,3.5"/>
    <path d="M178.1,2.6c.3,0,.6-.1,1-.1.5,0,.9.1,1.1.3.2.2.3.4.3.7,0,.5-.3.8-.7.9h0c.3.1.4.4.5.7.1.5.2.9.3,1h-.6c-.1-.1-.1-.4-.2-.9-.1-.5-.3-.6-.7-.6h-.3v1.5h-.7v-3.5ZM178.8,4.2h.4c.4,0,.7-.2.7-.6s-.3-.6-.7-.6h-.4v1.2Z"/>
  </g>
</svg>